<?xml version="1.0" standalone="no"?>
<!DOCTYPE svg PUBLIC "-//W3C//DTD SVG 20010904//EN"
 "http://www.w3.org/TR/2001/REC-SVG-20010904/DTD/svg10.dtd">
<svg version="1.0" xmlns="http://www.w3.org/2000/svg"
 width="900.000000pt" height="231.000000pt" viewBox="0 0 900.000000 231.000000"
 preserveAspectRatio="xMidYMid meet">
<metadata>
Created by potrace 1.10, written by Peter Selinger 2001-2011
</metadata>
<g transform="translate(0.000000,231.000000) scale(0.100000,-0.100000)"
fill="#000000" stroke="none">
<path d="M1205 1980 c-33 -9 -73 -22 -88 -28 -16 -7 -32 -12 -37 -12 -5 0 -25
-8 -45 -17 -25 -12 -35 -23 -35 -40 0 -37 25 -87 64 -131 25 -27 36 -49 36
-71 0 -17 -5 -31 -11 -31 -20 0 -128 117 -134 146 -11 50 -14 54 -34 54 -19 0
-29 -8 -160 -134 -67 -64 -112 -125 -94 -127 5 0 42 -2 83 -3 62 -2 82 -7 118
-29 53 -34 112 -123 115 -174 2 -34 0 -38 -23 -38 -20 0 -27 7 -37 37 -36 111
-124 158 -258 140 -44 -6 -52 -12 -75 -47 -33 -52 -55 -125 -75 -254 -15 -93
-15 -105 -1 -119 13 -14 22 -13 81 1 56 14 74 15 112 4 61 -16 120 -70 161
-147 40 -73 73 -113 121 -143 29 -17 50 -21 108 -20 63 1 75 -2 84 -19 13 -25
-1 -43 -48 -59 -54 -17 -125 2 -200 56 -36 26 -133 152 -133 174 0 4 -16 24
-35 44 -42 43 -99 61 -166 52 -103 -14 -104 -71 -5 -274 17 -35 39 -69 48 -74
22 -15 93 9 134 45 30 27 77 37 88 19 8 -12 -39 -71 -74 -92 -17 -11 -41 -19
-55 -19 -26 0 -58 -26 -52 -44 2 -6 24 -12 50 -14 68 -5 134 34 190 112 19 26
67 15 67 -16 0 -36 -99 -122 -164 -142 -31 -10 -56 -23 -56 -29 0 -7 17 -22
38 -35 20 -12 49 -32 64 -44 23 -18 32 -20 50 -11 46 22 65 26 186 33 121 7
124 8 147 36 19 23 24 41 25 87 0 61 16 81 45 57 22 -18 20 -127 -3 -162 -44
-67 -107 -91 -232 -86 -62 2 -93 -1 -102 -10 -16 -16 -4 -26 59 -46 66 -20
103 -20 145 1 64 32 69 34 78 28 19 -12 10 -47 -19 -76 l-30 -29 -258 6 c-239
7 -259 6 -273 -11 -13 -15 -12 -19 10 -37 18 -15 34 -18 60 -14 36 6 950 8
1194 4 145 -3 171 3 164 38 -3 18 -15 19 -295 19 -272 0 -292 1 -312 19 -11
11 -21 30 -21 43 0 20 5 23 39 23 22 0 44 -6 51 -15 16 -20 68 -19 133 1 62
20 69 25 57 43 -6 11 -33 14 -120 12 -120 -2 -166 7 -217 46 -31 24 -68 96
-58 114 11 17 25 9 70 -38 l44 -48 143 -6 c101 -4 155 -11 185 -24 l43 -17 60
43 c33 24 62 52 65 61 3 9 14 20 23 23 26 10 81 79 84 106 3 23 3 23 -118 24
-114 0 -123 2 -162 27 -63 42 -112 88 -112 107 0 18 -37 37 -95 47 -25 4 -48
16 -62 33 -26 30 -30 61 -8 61 20 0 19 26 -1 34 -8 3 -12 11 -9 16 4 6 26 -8
51 -33 51 -51 95 -61 195 -47 69 10 96 4 104 -21 10 -30 -3 -39 -53 -40 -26
-1 -60 -4 -76 -8 -27 -6 -26 -7 45 -57 l74 -51 138 -5 139 -5 25 38 c14 21 22
43 18 48 -3 6 -29 11 -58 11 -52 0 -129 23 -158 47 -8 7 -20 13 -26 13 -15 0
-112 100 -129 132 -8 16 -12 33 -9 38 12 20 55 10 77 -17 89 -109 143 -138
268 -145 52 -3 55 -2 69 27 16 32 34 223 25 266 -5 27 -46 44 -174 72 -98 21
-485 17 -564 -6 -75 -21 -131 -66 -120 -96 2 -8 -2 -21 -9 -30 -8 -9 -19 -29
-24 -45 -12 -40 -28 -43 -49 -11 -15 22 -16 32 -6 59 7 18 12 43 13 57 0 38
88 104 169 128 61 19 95 21 305 21 241 0 313 -8 404 -47 20 -8 38 -10 43 -5
12 12 -52 203 -70 210 -7 2 -30 -11 -50 -30 -20 -19 -49 -42 -64 -51 -37 -23
-162 -34 -183 -17 -25 21 14 50 78 57 28 3 66 12 82 21 43 21 95 73 95 95 0
28 -103 150 -182 215 -82 68 -199 139 -252 153 -21 6 -46 14 -55 18 -65 33
-248 53 -255 29 -3 -7 -12 -39 -22 -71 -10 -35 -25 -62 -37 -68 -36 -20 -43
20 -15 93 13 34 4 58 -19 57 -10 -1 -45 -9 -78 -19z m41 -55 c4 -8 0 -25 -8
-38 -24 -38 -43 -110 -41 -157 1 -42 15 -80 47 -138 17 -30 9 -62 -14 -62 -24
0 -60 51 -82 115 -37 107 -10 250 52 282 32 16 39 16 46 -2z m309 5 c3 -5 -18
-25 -47 -44 -64 -41 -79 -57 -152 -168 -55 -83 -77 -104 -97 -92 -12 7 -12 61
1 69 5 3 28 36 50 73 45 76 89 128 128 154 29 19 107 24 117 8z m183 -68 c19
-25 15 -30 -37 -37 -53 -7 -88 -36 -132 -110 -34 -58 -94 -119 -158 -162 -71
-47 -117 -96 -142 -150 -20 -44 -26 -123 -9 -123 19 0 10 -28 -11 -33 -26 -7
-69 8 -70 25 -1 7 -2 28 -4 46 -6 67 81 203 167 262 84 58 136 110 160 158 27
55 109 139 140 145 36 7 82 -3 96 -21z m-1 -78 c3 -8 0 -27 -8 -42 -7 -15 -18
-43 -24 -62 -8 -28 -16 -35 -35 -35 -21 0 -26 5 -28 34 -4 41 24 108 47 114
31 9 42 7 48 -9z m-299 -70 c3 -27 -13 -48 -32 -41 -19 7 -21 38 -4 55 16 16
32 10 36 -14z m-504 -6 c55 -17 169 -127 164 -160 -5 -40 -48 -35 -78 8 -13
20 -37 46 -53 58 -29 21 -38 23 -132 29 -27 2 -51 6 -53 10 -1 4 5 21 13 37
13 26 21 30 57 30 22 0 59 -6 82 -12z m1040 -25 c14 -15 23 -30 20 -35 -3 -4
-27 -8 -54 -8 -38 0 -69 -10 -138 -45 -83 -42 -95 -45 -167 -45 -59 0 -83 4
-97 17 -44 40 -3 67 75 51 61 -13 99 -2 182 53 72 48 142 53 179 12z m64 -99
c27 -8 29 -39 3 -54 -11 -5 -37 -10 -58 -10 -57 -1 -132 -46 -168 -102 -23
-36 -36 -47 -57 -47 -40 -1 -43 15 -11 62 81 119 193 177 291 151z m-543 -85
c19 -17 49 -49 66 -71 29 -35 30 -41 17 -55 -24 -23 -47 -10 -112 63 -56 63
-59 67 -41 80 26 19 29 18 70 -17z m-305 -4 c0 -15 -7 -28 -17 -32 -10 -3 -26
-13 -37 -22 -10 -9 -30 -17 -45 -17 -14 -1 -36 -5 -48 -9 -16 -5 -24 -2 -32
13 -16 29 12 62 53 62 18 0 41 7 52 15 10 8 31 15 47 15 22 0 27 -4 27 -25z
m550 -5 c0 -18 -6 -33 -15 -37 -20 -7 -55 24 -55 49 0 14 8 18 35 18 32 0 35
-2 35 -30z m-311 -65 c49 -54 54 -85 13 -85 -22 0 -36 11 -66 50 -64 84 -20
114 53 35z m-573 9 c22 -33 9 -42 -55 -36 -55 5 -96 -12 -151 -64 -40 -39 -60
-43 -60 -13 0 32 38 87 79 114 28 19 50 24 103 24 62 1 69 -1 84 -25z m1294
-42 c0 -32 -16 -52 -42 -52 -21 0 -25 49 -6 68 23 23 48 14 48 -16z m-1010 -2
c0 -5 -9 -25 -21 -44 -33 -56 -99 -41 -69 15 19 35 90 58 90 29z m-245 -69
c33 -6 71 -12 85 -15 86 -15 258 -105 280 -146 6 -11 5 -23 -4 -35 -11 -16
-16 -15 -67 17 -30 19 -76 45 -104 58 -27 12 -59 27 -70 33 -11 6 -67 16 -125
23 -148 17 -179 9 -252 -68 -56 -61 -78 -67 -78 -24 0 32 38 85 85 118 42 29
136 58 170 53 11 -2 47 -8 80 -14z m406 -84 c-1 -12 -15 -9 -19 4 -3 6 1 10 8
8 6 -3 11 -8 11 -12z m364 -8 c5 -15 0 -29 -18 -47 -29 -29 -57 -24 -57 9 0
49 62 80 75 38z m125 1 c15 -27 5 -40 -31 -40 -24 0 -29 4 -29 23 0 13 3 27 7
30 13 14 43 6 53 -13z m261 -6 c12 -15 8 -21 -30 -54 -52 -45 -113 -65 -246
-80 -230 -27 -249 -31 -259 -56 -3 -8 -16 -14 -29 -14 -26 0 -76 -48 -101 -97
-22 -44 -21 -134 3 -186 63 -138 223 -200 377 -146 32 11 70 23 84 26 14 3 30
9 35 13 11 8 101 -3 112 -13 3 -4 -4 -18 -16 -31 -17 -18 -37 -25 -74 -29 -29
-2 -79 -14 -112 -26 -33 -12 -83 -25 -112 -28 -99 -11 -226 38 -292 114 -62
70 -81 121 -81 217 0 72 4 87 30 131 66 112 118 149 235 165 33 5 80 13 105
19 25 6 71 11 102 11 65 0 136 21 188 56 41 28 62 30 81 8z m-1266 -14 c4 -6
23 -17 43 -26 39 -16 65 -13 120 13 29 14 34 14 59 -2 l27 -18 -27 -21 c-27
-22 -113 -56 -141 -56 -8 0 -41 12 -72 27 -56 26 -91 63 -79 83 8 13 62 13 70
0z m1398 -31 c16 -25 -28 -101 -94 -164 -32 -30 -63 -55 -71 -55 -15 1 -48 24
-48 34 0 3 26 31 58 61 33 30 67 72 78 92 28 57 55 67 77 32z m-943 -112 c58
-29 65 -36 68 -65 3 -26 0 -32 -16 -32 -11 0 -30 8 -43 18 -38 29 -106 52
-153 52 -41 0 -85 -16 -159 -56 -34 -19 -50 -8 -45 27 2 18 19 32 68 56 56 28
76 32 140 32 64 0 84 -4 140 -32z m486 -19 c13 -21 4 -82 -13 -95 -22 -17 -28
-16 -47 2 -11 12 -12 23 -5 48 13 46 49 71 65 45z m-1081 -92 c28 -64 65 -96
112 -96 44 0 73 -16 73 -40 0 -15 -10 -20 -45 -26 -83 -12 -147 22 -184 99
-21 42 -28 97 -14 110 17 18 36 2 58 -47z m513 5 c110 -56 153 -195 98 -314
-55 -118 -168 -170 -291 -133 -47 14 -55 37 -22 59 20 13 31 14 61 5 95 -30
216 70 216 178 0 65 -54 135 -120 155 -31 9 -43 8 -84 -11 -37 -17 -51 -19
-62 -9 -23 19 -16 37 23 64 47 32 126 34 181 6z m313 -28 c8 -10 23 -34 33
-53 33 -60 93 -134 123 -151 15 -9 50 -20 77 -24 59 -8 96 -24 96 -41 0 -18
-24 -24 -93 -24 -111 0 -178 52 -251 195 -23 46 -33 78 -30 93 7 26 26 28 45
5z m507 -99 c47 -13 9 -64 -49 -64 -49 0 -54 10 -23 43 26 28 34 31 72 21z
m-569 -430 c12 -15 21 -41 21 -60 0 -18 5 -36 10 -39 6 -3 10 -15 10 -26 0
-18 -6 -20 -67 -17 -66 3 -68 4 -65 28 1 14 4 48 5 77 6 87 36 100 86 37z"/>
<path d="M2665 1580 c-8 -13 -9 -946 -1 -959 3 -4 17 -6 31 -3 l25 4 0 237 c0
157 -4 241 -11 248 -8 8 -8 13 0 17 14 9 15 456 2 456 -5 0 -16 3 -24 6 -8 3
-18 0 -22 -6z"/>
<path d="M5109 1510 c-14 -8 -15 -39 -11 -252 2 -134 3 -252 3 -263 -9 -102
11 -159 59 -170 36 -8 70 2 70 20 0 7 -12 27 -26 44 l-25 30 -2 298 -2 298
-25 2 c-14 2 -32 -1 -41 -7z"/>
<path d="M7225 1487 c-38 -33 -39 -36 -44 -113 -5 -71 -8 -79 -28 -82 -32 -5
-49 -28 -33 -47 7 -8 18 -15 26 -15 35 0 39 -22 33 -201 -3 -96 -3 -180 -1
-187 3 -8 18 -12 41 -10 l36 3 0 195 0 195 37 0 c44 0 61 14 56 46 -3 21 -8
24 -48 24 l-45 0 -3 51 c-2 39 2 56 19 78 19 25 27 27 60 22 32 -5 40 -3 49
14 6 12 8 30 5 40 -5 17 -16 20 -64 20 -51 0 -62 -4 -96 -33z"/>
<path d="M5360 1492 c-22 -6 -40 -33 -40 -59 0 -53 93 -68 106 -17 14 54 -18
90 -66 76z"/>
<path d="M3291 1437 c-5 -12 -23 -65 -40 -117 -17 -52 -35 -104 -40 -115 -4
-11 -16 -47 -25 -80 -10 -33 -24 -73 -32 -88 -8 -16 -14 -34 -14 -40 0 -7 -11
-39 -25 -72 -35 -85 -33 -95 14 -95 36 0 39 2 54 43 8 23 18 58 21 76 13 72
22 77 135 76 110 -2 131 -11 131 -54 0 -14 9 -51 19 -81 18 -54 18 -55 61 -58
42 -3 42 -3 37 25 -2 15 -15 53 -27 83 -12 30 -24 64 -27 75 -3 11 -11 34 -19
52 -8 17 -14 38 -14 47 0 8 -6 30 -14 48 -17 42 -35 94 -46 133 -11 38 -29 91
-46 133 -12 29 -18 32 -54 32 -33 0 -42 -4 -49 -23z m73 -124 c10 -32 28 -92
41 -133 14 -41 21 -78 17 -82 -4 -3 -40 -8 -80 -10 -90 -3 -98 5 -72 76 9 28
25 80 35 116 9 36 19 71 21 78 7 26 20 10 38 -45z"/>
<path d="M6107 1423 c-4 -3 -7 -29 -7 -58 0 -58 -12 -75 -52 -75 -24 0 -28 -4
-28 -29 0 -26 4 -30 33 -33 l32 -3 5 -155 c6 -158 13 -192 46 -221 23 -20 82
-30 130 -22 32 5 35 8 32 37 -3 29 -5 31 -42 29 -29 -2 -46 3 -63 19 -22 21
-23 28 -23 171 l0 149 54 -6 c49 -7 56 -5 66 14 6 11 8 30 5 41 -6 18 -14 20
-63 17 l-57 -3 -3 68 c-3 66 -3 67 -31 67 -15 0 -31 -3 -34 -7z"/>
<path d="M3830 1293 c-14 -10 -34 -25 -45 -35 -24 -23 -38 -19 -45 13 -5 19
-12 24 -35 24 l-30 0 0 -230 0 -230 35 0 35 0 3 166 2 166 33 30 c43 41 92 49
135 23 26 -16 32 -26 32 -56 0 -19 5 -44 11 -55 7 -15 7 -24 -1 -34 -7 -8 -10
-54 -8 -126 l3 -114 42 -3 42 -3 0 173 c-1 198 -13 247 -69 286 -40 27 -105
29 -140 5z"/>
<path d="M4256 1292 c-97 -57 -124 -151 -66 -230 l30 -41 -25 -37 c-31 -46
-31 -62 0 -104 l25 -33 -29 -18 c-55 -33 -59 -118 -7 -161 46 -37 216 -67 216
-38 0 6 13 10 28 10 44 0 109 53 131 107 17 42 0 95 -39 123 -24 17 -44 20
-127 20 -108 0 -146 12 -151 48 -6 40 14 53 74 46 104 -13 177 46 178 140 0
28 -3 63 -8 79 -8 26 -7 27 28 27 29 0 37 4 42 24 10 40 -2 47 -79 46 -40 -1
-99 1 -132 4 -46 4 -67 1 -89 -12z m139 -73 c30 -27 35 -37 35 -76 0 -116
-151 -145 -185 -35 -13 44 4 99 38 121 44 29 71 26 112 -10z m73 -405 c12 -8
22 -25 22 -36 0 -23 -36 -68 -53 -68 -6 0 -18 -7 -27 -15 -13 -12 -29 -14 -77
-7 -101 14 -127 43 -107 120 6 21 11 22 113 22 80 0 112 -4 129 -16z"/>
<path d="M4735 1293 c-88 -46 -125 -113 -125 -226 0 -111 26 -165 102 -213 31
-20 51 -24 109 -24 95 0 151 23 147 60 -4 31 -36 38 -83 16 -42 -20 -76 -20
-118 0 -54 26 -112 132 -74 135 6 1 73 0 149 -1 129 -2 137 -1 147 19 15 28
-11 140 -41 182 -46 63 -146 87 -213 52z m136 -74 c28 -20 56 -89 44 -109 -4
-6 -57 -10 -121 -10 -125 0 -129 2 -99 60 37 72 119 100 176 59z"/>
<path d="M5581 1301 c-9 -6 -12 -61 -12 -227 0 -120 0 -225 0 -231 1 -8 15
-13 36 -13 26 0 38 5 43 19 4 11 5 82 2 158 -3 76 -1 147 4 158 13 27 45 51
87 65 30 10 41 9 66 -4 41 -21 45 -42 42 -221 -1 -83 1 -157 5 -163 10 -16 76
-16 77 1 1 6 0 89 -1 184 -1 147 -5 178 -21 209 -46 91 -152 100 -232 21 -22
-22 -41 -18 -45 11 -4 26 -32 44 -51 33z"/>
<path d="M6468 1290 c-20 -11 -45 -32 -55 -46 -10 -14 -28 -38 -40 -54 -20
-24 -23 -40 -23 -119 0 -84 2 -94 31 -142 46 -74 91 -99 180 -99 74 0 149 23
149 45 0 14 -32 45 -47 45 -6 0 -24 -7 -39 -15 -71 -37 -145 -5 -191 84 -7 13
-13 29 -13 36 0 20 15 22 162 18 130 -5 137 -4 147 16 15 28 -11 140 -41 182
-49 66 -147 87 -220 49z m143 -71 c28 -20 56 -89 44 -108 -3 -5 -55 -10 -116
-10 -86 0 -111 3 -115 14 -10 26 10 64 51 94 48 36 94 40 136 10z"/>
<path d="M6967 1275 c-42 -40 -54 -43 -59 -14 -4 29 -33 47 -54 34 -13 -9 -16
-42 -17 -235 l-2 -225 43 -3 42 -3 0 159 0 159 33 37 c24 28 42 39 73 43 74
10 88 83 15 83 -30 0 -46 -8 -74 -35z"/>
<path d="M7485 1289 c-78 -32 -89 -47 -61 -84 13 -18 15 -18 66 8 83 43 143
31 171 -35 17 -40 4 -50 -93 -67 -79 -14 -144 -49 -166 -91 -19 -37 -10 -125
16 -153 26 -27 102 -51 134 -42 34 10 88 38 88 47 0 18 28 6 38 -17 12 -27 61
-36 63 -12 5 40 -4 223 -11 231 -5 5 -4 20 1 35 6 14 7 46 4 71 -17 112 -125
159 -250 109z m200 -228 c3 -5 1 -12 -5 -16 -5 -3 -10 -25 -10 -49 0 -57 -42
-91 -127 -105 -33 -6 -41 -3 -60 20 -46 54 -18 106 75 140 52 19 118 24 127
10z"/>
<path d="M7987 1291 c-86 -41 -137 -128 -137 -237 0 -34 4 -65 9 -69 5 -3 12
-18 16 -34 6 -29 48 -74 97 -104 68 -42 238 -8 238 48 0 36 -39 43 -83 16 -19
-12 -44 -21 -56 -21 -33 0 -77 26 -105 63 -23 30 -26 44 -26 112 0 68 3 82 26
112 27 36 71 63 103 63 11 0 35 -9 53 -20 41 -25 55 -25 68 -1 35 67 -106 117
-203 72z"/>
<path d="M8385 1293 c-42 -22 -64 -42 -94 -88 -23 -36 -26 -49 -26 -140 0 -82
3 -105 20 -130 24 -38 52 -66 87 -88 40 -25 166 -23 218 3 45 23 46 26 22 58
l-18 23 -44 -20 c-57 -26 -96 -26 -137 -1 -39 23 -86 92 -81 117 3 17 15 18
150 14 l148 -3 9 24 c14 36 -8 137 -37 176 -50 66 -149 91 -217 55z m150 -87
c30 -29 36 -41 33 -68 l-3 -33 -113 -3 c-128 -3 -139 3 -102 62 51 83 124 100
185 42z"/>
<path d="M5335 1288 c-2 -7 -3 -112 -2 -233 l2 -220 43 -3 42 -3 0 229 0 230
-22 6 c-36 9 -58 7 -63 -6z"/>
<path d="M795 359 c-9 -26 6 -42 36 -37 29 4 34 21 14 42 -22 22 -42 20 -50
-5z"/>
<path d="M1917 363 c-4 -3 -7 -15 -7 -25 0 -20 44 -26 55 -8 14 22 -30 52 -48
33z"/>
</g>
</svg>
