<?xml version="1.0" encoding="UTF-8"?>
<svg version="1.1" xmlns="http://www.w3.org/2000/svg" width="94" height="94">
<path d="M0 0 C31.02 0 62.04 0 94 0 C94 31.02 94 62.04 94 94 C62.98 94 31.96 94 0 94 C0 62.98 0 31.96 0 0 Z " fill="#E9ECFA" transform="translate(0,0)"/>
<path d="M0 0 C31.02 0 62.04 0 94 0 C94 31.02 94 62.04 94 94 C90.7 94 87.4 94 84 94 C84.97398743 92.99961449 84.97398743 92.99961449 85.96765137 91.97901917 C88.4441385 88.34898123 88.56626067 85.57507084 88.51757812 81.33569336 C88.5245874 80.58060989 88.53159668 79.82552643 88.53881836 79.04756165 C88.55636853 76.56127736 88.54478819 74.07613882 88.53125 71.58984375 C88.53394551 69.85779096 88.53782842 68.12573964 88.54284668 66.39369202 C88.54873742 62.76809242 88.54019159 59.14288762 88.52148438 55.51733398 C88.49867776 50.87099565 88.511831 46.22558067 88.53577423 41.57927608 C88.55022927 38.00445092 88.54562792 34.42984466 88.53526306 30.85501289 C88.53259583 29.14179945 88.53586542 27.42856609 88.54518127 25.7153759 C88.55534429 23.32135231 88.53985199 20.92882431 88.51757812 18.53491211 C88.52567505 17.82779083 88.53377197 17.12066956 88.54211426 16.39212036 C88.48750612 13.2230199 88.15868238 11.24707545 86.43383789 8.56141663 C83.16104302 6.46177131 80.3085806 6.43880129 76.54101562 6.48242188 C75.79583176 6.4754126 75.05064789 6.46840332 74.28288269 6.46118164 C71.82362424 6.44359958 69.36551982 6.45522426 66.90625 6.46875 C65.19518819 6.46605512 63.48412786 6.46217274 61.77307129 6.45715332 C58.18857225 6.45125802 54.60447216 6.45982201 51.02001953 6.47851562 C46.42633561 6.50130549 41.83358646 6.48818254 37.23993683 6.46422577 C33.70714276 6.44976848 30.17457016 6.45437339 26.64176941 6.46473694 C24.94809356 6.46740443 23.25439757 6.46413365 21.56074524 6.45481873 C19.19295024 6.44465388 16.82666683 6.46015121 14.45898438 6.48242188 C13.75964279 6.47432495 13.06030121 6.46622803 12.33976746 6.45788574 C9.19069127 6.51273277 7.23509324 6.8491771 4.56616211 8.56141663 C2.45041968 11.85572077 2.43898854 14.74178834 2.48242188 18.53491211 C2.4754126 19.28824326 2.46840332 20.0415744 2.46118164 20.81773376 C2.443596 23.30464694 2.45522679 25.79041926 2.46875 28.27734375 C2.46605495 30.00843016 2.46217241 31.73951509 2.45715332 33.47059631 C2.45125729 37.09797585 2.45982333 40.72496123 2.47851562 44.35229492 C2.50128845 48.99744319 2.48819374 53.64166615 2.46422577 58.28678036 C2.44975593 61.86164797 2.45437946 65.43629706 2.46473694 69.01117134 C2.46740184 70.72355827 2.46414276 72.43596516 2.45481873 74.14832878 C2.44463515 76.54464952 2.46017837 78.93948311 2.48242188 81.33569336 C2.47432495 82.04079041 2.46622803 82.74588745 2.45788574 83.47235107 C2.53958384 88.23400052 3.69626016 90.60671854 7 94 C4.69 94 2.38 94 0 94 C0 62.98 0 31.96 0 0 Z " fill="#FBFBFC" transform="translate(0,0)"/>
<path d="M0 0 C7.26 0 14.52 0 22 0 C22 9.24 22 18.48 22 28 C14.74 28 7.48 28 0 28 C0 18.76 0 9.52 0 0 Z " fill="#4B6DF7" transform="translate(20,24)"/>
<path d="M0 0 C3.47914941 -0.02887814 6.95826831 -0.04675687 10.4375 -0.0625 C11.92733398 -0.07506836 11.92733398 -0.07506836 13.44726562 -0.08789062 C14.39150391 -0.09111328 15.33574219 -0.09433594 16.30859375 -0.09765625 C17.62041626 -0.10551147 17.62041626 -0.10551147 18.95874023 -0.11352539 C21 0 21 0 22 1 C22.09959621 2.84159023 22.13080411 4.68696967 22.1328125 6.53125 C22.13474609 8.21154297 22.13474609 8.21154297 22.13671875 9.92578125 C22.13285156 11.10527344 22.12898438 12.28476562 22.125 13.5 C22.13080078 15.26923828 22.13080078 15.26923828 22.13671875 17.07421875 C22.13542969 18.19441406 22.13414063 19.31460938 22.1328125 20.46875 C22.13168457 21.50451172 22.13055664 22.54027344 22.12939453 23.60742188 C22 26 22 26 21 27 C19.52347336 27.09880797 18.04232764 27.13079245 16.5625 27.1328125 C15.22058594 27.13474609 15.22058594 27.13474609 13.8515625 27.13671875 C12.91054688 27.13285156 11.96953125 27.12898438 11 27.125 C9.58847656 27.13080078 9.58847656 27.13080078 8.1484375 27.13671875 C7.25382812 27.13542969 6.35921875 27.13414063 5.4375 27.1328125 C4.61121094 27.13168457 3.78492188 27.13055664 2.93359375 27.12939453 C1 27 1 27 0 26 C-0.08748207 24.07332493 -0.10697334 22.14348139 -0.09765625 20.21484375 C-0.09443359 19.04501953 -0.09121094 17.87519531 -0.08789062 16.66992188 C-0.07951172 15.43822266 -0.07113281 14.20652344 -0.0625 12.9375 C-0.05798828 11.70193359 -0.05347656 10.46636719 -0.04882812 9.19335938 C-0.03699608 6.12885883 -0.02051173 3.06445279 0 0 Z " fill="#9BACF9" transform="translate(48,47)"/>
<path d="M0 0 C7.26 0 14.52 0 22 0 C22 5.61 22 11.22 22 17 C14.74 17 7.48 17 0 17 C0 11.39 0 5.78 0 0 Z " fill="#4C6EF7" transform="translate(20,57)"/>
<path d="M0 0 C7.26 0 14.52 0 22 0 C22 5.61 22 11.22 22 17 C14.74 17 7.48 17 0 17 C0 11.39 0 5.78 0 0 Z " fill="#4C6EF7" transform="translate(48,24)"/>
</svg>
