<?xml version="1.0" encoding="UTF-8"?>
<svg version="1.1" xmlns="http://www.w3.org/2000/svg" width="98" height="90">
<path d="M0 0 C32.34 0 64.68 0 98 0 C98 29.7 98 59.4 98 90 C65.66 90 33.32 90 0 90 C0 60.3 0 30.6 0 0 Z " fill="#E9ECFA" transform="translate(0,0)"/>
<path d="M0 0 C2.31 0 4.62 0 7 0 C6.67 0.99 6.34 1.98 6 3 C5.88887646 5.48795751 5.83239249 7.94867902 5.82299805 10.43725586 C5.81642685 11.19204727 5.80985565 11.94683868 5.80308533 12.72450256 C5.78337998 15.22128398 5.77169797 17.71800542 5.76171875 20.21484375 C5.75764322 21.06763979 5.7535677 21.92043583 5.74936867 22.79907417 C5.72852303 27.30997602 5.71421294 31.82084754 5.70483398 36.33178711 C5.69375266 40.99377239 5.65932894 45.65528258 5.61966228 50.31709957 C5.59354461 53.90044555 5.58514665 57.48367726 5.58155251 61.06711006 C5.57667656 62.78593733 5.56503394 64.50475916 5.54651451 66.22349358 C5.52221786 68.62716535 5.52306977 71.02959316 5.5300293 73.43334961 C5.51721924 74.14361298 5.50440918 74.85387634 5.49121094 75.58566284 C5.52480649 78.76661881 5.83489973 80.74223278 7.56318665 83.44056702 C10.83811088 85.53634709 13.6912723 85.56120041 17.45898438 85.51757812 C18.20416824 85.5245874 18.94935211 85.53159668 19.71711731 85.53881836 C22.17637576 85.55640042 24.63448018 85.54477574 27.09375 85.53125 C28.80481181 85.53394488 30.51587214 85.53782726 32.22692871 85.54284668 C35.81142775 85.54874198 39.39552784 85.54017799 42.97998047 85.52148438 C47.57366439 85.49869451 52.16641354 85.51181746 56.76006317 85.53577423 C60.29285724 85.55023152 63.82542984 85.54562661 67.35823059 85.53526306 C69.05190644 85.53259557 70.74560243 85.53586635 72.43925476 85.54518127 C74.80704976 85.55534612 77.17333317 85.53984879 79.54101562 85.51757812 C80.24035721 85.52567505 80.93969879 85.53377197 81.66023254 85.54211426 C84.80881011 85.48727592 86.76652306 85.14941302 89.43681335 83.44056702 C91.55621763 80.13159032 91.53858792 77.23788297 91.4699707 73.43334961 C91.4721611 72.67680588 91.4743515 71.92026215 91.47660828 71.14079285 C91.47891672 68.64419597 91.45268048 66.14878307 91.42578125 63.65234375 C91.42085695 61.91647211 91.41755833 60.18059516 91.41581726 58.44471741 C91.40817943 54.80891937 91.38762482 51.1735153 91.35668945 47.5378418 C91.31708538 42.87484445 91.29907549 38.21210324 91.28938007 33.54895687 C91.27941109 29.10421773 91.25952254 24.65954121 91.23828125 20.21484375 C91.2348855 19.36521498 91.23148975 18.5155862 91.2279911 17.64021111 C91.21642424 15.23915011 91.19790497 12.83825155 91.17700195 10.43725586 C91.17431305 9.72496826 91.17162415 9.01268066 91.16885376 8.27880859 C91.13569943 5.24547892 90.96734444 2.90203331 90 0 C92.64 0 95.28 0 98 0 C98 29.7 98 59.4 98 90 C65.66 90 33.32 90 0 90 C0 60.3 0 30.6 0 0 Z " fill="#FBFBFC" transform="translate(0,0)"/>
<path d="M0 0 C2.35210784 2.11689705 2.91810953 3.44041515 3.375 6.5625 C3 9 3 9 1.9375 10.8125 C-1.05550269 12.646921 -3.57816663 12.31107576 -7 12 C-9 10 -9 10 -9.3125 6.5625 C-9 3 -9 3 -7.875 1.0625 C-5.07837528 -0.52225401 -3.1506804 -0.45947423 0 0 Z " fill="#5071F7" transform="translate(71,17)"/>
<path d="M0 0 C2 2 2 2 2.3125 4.9375 C2 8 2 8 0.9375 9.875 C-2.09814371 11.63763183 -4.57798172 11.37331109 -8 11 C-10.31282587 7.53076119 -10.42478586 6.07794425 -10 2 C-7.65131237 -2.28290097 -4.2151329 -0.99630414 0 0 Z " fill="#4F70F7" transform="translate(53,18)"/>
<path d="M0 0 C3.0625 0.3125 3.0625 0.3125 4.9375 1.375 C6.68223477 4.37982099 6.37085443 6.92060131 6.0625 10.3125 C4.0625 12.3125 4.0625 12.3125 0.625 12.625 C-2.9375 12.3125 -2.9375 12.3125 -4.9375 11.25 C-6.55397822 8.11807344 -5.72415296 5.64064714 -4.9375 2.3125 C-2.9375 0.3125 -2.9375 0.3125 0 0 Z " fill="#5070F7" transform="translate(29.9375,16.6875)"/>
<path d="M0 0 C1.875 1.125 1.875 1.125 3 3 C3.4375 6 3.4375 6 3 9 C0.88310295 11.35210784 -0.44041515 11.91810953 -3.5625 12.375 C-6 12 -6 12 -7.8125 10.875 C-9.55198782 8.12844028 -9.39769128 6.18153026 -9 3 C-6.79086995 -0.68188342 -4.01844539 -0.50230567 0 0 Z " fill="#9CAEF9" transform="translate(52,55)"/>
<path d="M0 0 C2.31282587 3.46923881 2.42478586 4.92205575 2 9 C0.875 10.875 0.875 10.875 -1 12 C-4 12.4375 -4 12.4375 -7 12 C-9.35210784 9.88310295 -9.91810953 8.55958485 -10.375 5.4375 C-10 3 -10 3 -8.9375 1.1875 C-5.91496844 -0.66501934 -3.45067281 -0.37643703 0 0 Z " fill="#4F70F7" transform="translate(34,55)"/>
<path d="M0 0 C1.9375 1.0625 1.9375 1.0625 3 3 C2.66666667 9.33333333 2.66666667 9.33333333 0 12 C-3.10347254 12.33015665 -5.15781176 12.50531294 -7.875 10.875 C-9.52854531 8.11909116 -9.39365568 6.14924548 -9 3 C-6.79086995 -0.68188342 -4.01844539 -0.50230567 0 0 Z " fill="#9CAEF9" transform="translate(71,36)"/>
<path d="M0 0 C1.875 1.125 1.875 1.125 3 3 C3.39365568 6.14924548 3.52854531 8.11909116 1.875 10.875 C-0.91106042 12.54663625 -2.81988862 12.46376624 -6 12 C-8.35210784 9.88310295 -8.91810953 8.55958485 -9.375 5.4375 C-9 3 -9 3 -7.875 1.1875 C-5.12844028 -0.55198782 -3.18153026 -0.39769128 0 0 Z " fill="#4E70F7" transform="translate(33,36)"/>
<path d="M0 0 C3.5625 0.3125 3.5625 0.3125 5.5625 1.375 C7.21452607 4.57580051 6.48256911 6.93891327 5.5625 10.3125 C3.8125 11.8125 3.8125 11.8125 1.5625 12.3125 C-1.78727063 11.99347423 -3.02929639 11.72070361 -5.4375 9.3125 C-5.6875 5.8125 -5.6875 5.8125 -5.4375 2.3125 C-3.4375 0.3125 -3.4375 0.3125 0 0 Z " fill="#9CAEF9" transform="translate(67.4375,54.6875)"/>
<path d="M0 0 C1.875 1.125 1.875 1.125 3 3 C3.39365568 6.14924548 3.52854531 8.11909116 1.875 10.875 C-0.88090884 12.52854531 -2.85075452 12.39365568 -6 12 C-7.875 10.875 -7.875 10.875 -9 9 C-9.39365568 5.85075452 -9.52854531 3.88090884 -7.875 1.125 C-5.11909116 -0.52854531 -3.14924548 -0.39365568 0 0 Z " fill="#4D6EF7" transform="translate(52,36)"/>
</svg>
