<?xml version="1.0" encoding="UTF-8"?>
<svg version="1.1" xmlns="http://www.w3.org/2000/svg" width="98" height="89">
<path d="M0 0 C32.34 0 64.68 0 98 0 C98 29.37 98 58.74 98 89 C65.66 89 33.32 89 0 89 C0 59.63 0 30.26 0 0 Z " fill="#E9ECFA" transform="translate(0,0)"/>
<path d="M0 0 C2.97 0 5.94 0 9 0 C8.67 0.99 8.34 1.98 8 3 C7.88887646 5.48795751 7.83239249 7.94867902 7.82299805 10.43725586 C7.81642685 11.19204727 7.80985565 11.94683868 7.80308533 12.72450256 C7.78337998 15.22128398 7.77169797 17.71800542 7.76171875 20.21484375 C7.75764322 21.06763979 7.7535677 21.92043583 7.74936867 22.79907417 C7.72852303 27.30997602 7.71421294 31.82084754 7.70483398 36.33178711 C7.69375266 40.99377239 7.65932894 45.65528258 7.61966228 50.31709957 C7.59354461 53.90044555 7.58514665 57.48367726 7.58155251 61.06711006 C7.57667656 62.78593733 7.56503394 64.50475916 7.54651451 66.22349358 C7.52221786 68.62716535 7.52306977 71.02959316 7.5300293 73.43334961 C7.51721924 74.14361298 7.50440918 74.85387634 7.49121094 75.58566284 C7.52476728 78.76290621 7.83583344 80.74274637 9.55744934 83.44056702 C12.85902517 85.54843988 15.75485917 85.56094715 19.55078125 85.51757812 C20.30571869 85.5245874 21.06065613 85.53159668 21.83847046 85.53881836 C24.33018948 85.55640198 26.82076974 85.54477511 29.3125 85.53125 C31.04598203 85.53394483 32.77946259 85.53782717 34.51293945 85.54284668 C38.14451501 85.5487422 41.7756968 85.54017726 45.40722656 85.52148438 C50.06144045 85.49869454 54.71473171 85.51181737 59.36891174 85.53577423 C62.94802803 85.55023091 66.5269257 85.54562687 70.10604858 85.53526306 C71.82205311 85.5325954 73.53807751 85.53586693 75.25405884 85.54518127 C77.65297996 85.55534508 80.05040875 85.53985007 82.44921875 85.51757812 C83.15791107 85.52567505 83.86660339 85.53377197 84.59677124 85.54211426 C87.76589654 85.48762599 89.75250614 85.15801109 92.44255066 83.44056702 C94.55459671 80.13093133 94.5385398 77.23521472 94.4699707 73.43334961 C94.4721611 72.67680588 94.4743515 71.92026215 94.47660828 71.14079285 C94.47891672 68.64419597 94.45268048 66.14878307 94.42578125 63.65234375 C94.42085695 61.91647211 94.41755833 60.18059516 94.41581726 58.44471741 C94.40817943 54.80891937 94.38762482 51.1735153 94.35668945 47.5378418 C94.31708538 42.87484445 94.29907549 38.21210324 94.28938007 33.54895687 C94.27941109 29.10421773 94.25952254 24.65954121 94.23828125 20.21484375 C94.2348855 19.36521498 94.23148975 18.5155862 94.2279911 17.64021111 C94.21642424 15.23915011 94.19790497 12.83825155 94.17700195 10.43725586 C94.17431305 9.72496826 94.17162415 9.01268066 94.16885376 8.27880859 C94.13569943 5.24547892 93.96734444 2.90203331 93 0 C94.65 0 96.3 0 98 0 C98 29.37 98 58.74 98 89 C65.66 89 33.32 89 0 89 C0 59.63 0 30.26 0 0 Z " fill="#FBFBFC" transform="translate(0,0)"/>
<path d="M0 0 C4.29 0 8.58 0 13 0 C13.103125 1.11375 13.20625 2.2275 13.3125 3.375 C13.6528125 5.169375 13.6528125 5.169375 14 7 C17.35327639 9.23551759 17.90743657 9.17283528 21.6875 8.625 C22.49574219 8.51414062 23.30398437 8.40328125 24.13671875 8.2890625 C24.75160156 8.19367187 25.36648437 8.09828125 26 8 C26.86941494 9.23944276 27.72005457 10.49207059 28.5625 11.75 C29.03816406 12.44609375 29.51382813 13.1421875 30.00390625 13.859375 C31 16 31 16 30.77734375 18.09765625 C29.45768895 21.32716321 27.75689449 22.87489383 25 25 C22.00058921 25.69333114 19.07305628 25.92635377 16 26 C15.566875 25.05125 15.13375 24.1025 14.6875 23.125 C13.20697799 19.79958063 13.20697799 19.79958063 10 18 C6.12661246 17.57744863 3.88401391 17.43332442 0.5625 19.5625 C-1.55418511 22.86452877 -1.35028204 25.14689752 -1 29 C-0.67 29.99 -0.34 30.98 0 32 C2.31 32.66 4.62 33.32 7 34 C7 39.61 7 45.22 7 51 C5.02 51 3.04 51 1 51 C0 50 0 50 -0.0625 46.4375 C-0.041875 45.303125 -0.02125 44.16875 0 43 C-4.65537393 42.16203269 -8.37078475 41.9838308 -13 43 C-13.83848804 41.54462432 -14.67063934 40.08559627 -15.5 38.625 C-16.19609375 37.40683594 -16.19609375 37.40683594 -16.90625 36.1640625 C-18 34 -18 34 -18 32 C-17.175 31.401875 -16.35 30.80375 -15.5 30.1875 C-12.81105639 28.25430147 -12.81105639 28.25430147 -12.375 25.5 C-13.24374557 22.02501772 -15.1010669 20.95677984 -18 19 C-17.32902328 14.80639551 -15.1441606 11.59665648 -13 8 C-12.07767578 8.14308594 -12.07767578 8.14308594 -11.13671875 8.2890625 C-10.32847656 8.39992188 -9.52023438 8.51078125 -8.6875 8.625 C-7.88699219 8.74101562 -7.08648437 8.85703125 -6.26171875 8.9765625 C-3.71276785 9.21533407 -3.71276785 9.21533407 -1 7 C-0.26393501 3.43230448 -0.26393501 3.43230448 0 0 Z " fill="#4D6EF7" transform="translate(44,16)"/>
<path d="M0 0 C0.66 0 1.32 0 2 0 C2 2.97 2 5.94 2 9 C-0.97 9 -3.94 9 -7 9 C-6.34 7.35 -5.68 5.7 -5 4 C-7.33294775 3.95758277 -9.66702567 3.95907063 -12 4 C-13.39287806 5.17036305 -13.39287806 5.17036305 -13.1875 8.4375 C-13.39564928 12.05032721 -13.39564928 12.05032721 -11 14 C-8.09324817 14.02168637 -8.09324817 14.02168637 -4.875 13.625 C-3.77929688 13.51414062 -2.68359375 13.40328125 -1.5546875 13.2890625 C-0.71164063 13.19367187 0.13140625 13.09828125 1 13 C-0.7265625 16.8359375 -0.7265625 16.8359375 -3.1875 18.3125 C-7.66249897 19.40638864 -11.37832785 18.93886282 -15.375 16.625 C-17.83484541 14.16515459 -17.99657011 12.0370428 -18.3125 8.625 C-17.94884973 4.40665686 -16.95115008 2.95115008 -14 0 C-9.87682083 -2.06158958 -4.3297623 -1.33223455 0 0 Z " fill="#9FB0F9" transform="translate(74,49)"/>
</svg>
