<?xml version="1.0" encoding="UTF-8"?>
<svg version="1.1" xmlns="http://www.w3.org/2000/svg" width="95" height="84">
<path d="M0 0 C31.35 0 62.7 0 95 0 C95 27.72 95 55.44 95 84 C63.65 84 32.3 84 0 84 C0 56.28 0 28.56 0 0 Z " fill="#E9ECFA" transform="translate(0,0)"/>
<path d="M0 0 C3.95137763 1.7550784 7.33206542 4.28499724 10.8125 6.8125 C11.40353516 7.23853516 11.99457031 7.66457031 12.60351562 8.10351562 C13.79452256 8.96202771 14.98479412 9.82156093 16.17431641 10.68212891 C19.10790508 12.79974212 22.05435446 14.8992003 25 17 C23.63515079 20.19021723 22.23913256 21.87244878 19.4453125 23.91015625 C18.74792969 24.42513672 18.05054688 24.94011719 17.33203125 25.47070312 C16.60371094 25.99599609 15.87539063 26.52128906 15.125 27.0625 C14.40441406 27.59166016 13.68382812 28.12082031 12.94140625 28.66601562 C11.59402712 29.65483806 10.24420064 30.64034099 8.89111328 31.62133789 C6.94049939 32.99347074 6.94049939 32.99347074 5.07373047 34.73608398 C3 36 3 36 0.53588867 35.8762207 C-2.24663361 34.91478117 -4.20290961 33.72141392 -6.57421875 31.98046875 C-7.40630859 31.37009766 -8.23839844 30.75972656 -9.09570312 30.13085938 C-10.37864258 29.16889648 -10.37864258 29.16889648 -11.6875 28.1875 C-12.55439453 27.55779297 -13.42128906 26.92808594 -14.31445312 26.27929688 C-21.30640963 21.09382252 -21.30640963 21.09382252 -23 17 C-22.44538086 16.59160889 -21.89076172 16.18321777 -21.31933594 15.76245117 C-18.79609079 13.90431487 -16.27304349 12.04591011 -13.75 10.1875 C-12.87730469 9.54490234 -12.00460938 8.90230469 -11.10546875 8.24023438 C-9.83896484 7.30727539 -9.83896484 7.30727539 -8.546875 6.35546875 C-7.77182617 5.78465576 -6.99677734 5.21384277 -6.19824219 4.62573242 C-4.12536263 3.09271321 -2.06056024 1.54952488 0 0 Z " fill="#4C6DF7" transform="translate(47,13)"/>
<path d="M0 0 C1.65 0 3.3 0 5 0 C5.00364563 0.95577942 5.00729126 1.91155884 5.01104736 2.89630127 C5.04798099 11.90153901 5.10573552 20.90643427 5.18390274 29.91141129 C5.22342017 34.54105299 5.25558761 39.17050327 5.27099609 43.80029297 C5.28613474 48.26794084 5.32053011 52.73506262 5.36830902 57.2024765 C5.38315175 58.90726907 5.39104267 60.61213674 5.39188385 62.31699371 C5.39424667 64.7044134 5.42126831 67.09037104 5.45410156 69.47753906 C5.4490712 70.18316483 5.44404083 70.88879059 5.43885803 71.61579895 C5.50622438 74.77953052 5.84429102 76.75790524 7.56793213 79.43780518 C10.83950155 81.53923865 13.69169538 81.56119551 17.45898438 81.51757812 C18.20416824 81.5245874 18.94935211 81.53159668 19.71711731 81.53881836 C22.17637576 81.55640042 24.63448018 81.54477574 27.09375 81.53125 C28.80481181 81.53394488 30.51587214 81.53782726 32.22692871 81.54284668 C35.81142775 81.54874198 39.39552784 81.54017799 42.97998047 81.52148438 C47.57366439 81.49869451 52.16641354 81.51181746 56.76006317 81.53577423 C60.29285724 81.55023152 63.82542984 81.54562661 67.35823059 81.53526306 C69.05190644 81.53259557 70.74560243 81.53586635 72.43925476 81.54518127 C74.80704976 81.55534612 77.17333317 81.53984879 79.54101562 81.51757812 C80.24035721 81.52567505 80.93969879 81.53377197 81.66023254 81.54211426 C84.80934535 81.4872666 86.76398437 81.15160038 89.43206787 79.43780518 C91.54624394 76.15070539 91.57290128 73.26531632 91.54589844 69.47753906 C91.56140495 68.3501255 91.56140495 68.3501255 91.57722473 67.19993591 C91.60666554 64.72161392 91.60815211 62.24410816 91.609375 59.765625 C91.62435586 58.04496705 91.64108281 56.32432349 91.65948486 54.60369873 C91.7031815 50.07948142 91.72316251 45.55545809 91.73822021 41.03106689 C91.75778302 36.41252155 91.79975393 31.79418596 91.83984375 27.17578125 C91.91517083 18.11725216 91.96544713 9.05876995 92 0 C92.99 0 93.98 0 95 0 C95 27.72 95 55.44 95 84 C63.65 84 32.3 84 0 84 C0 56.28 0 28.56 0 0 Z " fill="#FBFBFC" transform="translate(0,0)"/>
<path d="M0 0 C3.29323265 0.61097831 5.29651357 1.75257428 7.93359375 3.79296875 C8.66513672 4.34017578 9.39667969 4.88738281 10.15039062 5.45117188 C11.67832439 6.61114891 13.19918401 7.78050205 14.71289062 8.95898438 C18.72508707 12.17517964 18.72508707 12.17517964 23.5625 12.71875 C27.6557316 9.83249695 31.63934392 6.84087331 35.56054688 3.72460938 C36.20185547 3.23412109 36.84316406 2.74363281 37.50390625 2.23828125 C38.36737671 1.5582605 38.36737671 1.5582605 39.24829102 0.86450195 C41 0 41 0 43.21850586 0.36010742 C43.80639893 0.57127197 44.39429199 0.78243652 45 1 C45 2.32 45 3.64 45 5 C42.86082242 6.82070451 40.83000337 8.33917511 38.5 9.875 C37.20875681 10.75131094 35.91838702 11.62891024 34.62890625 12.5078125 C34.00258301 12.93094727 33.37625977 13.35408203 32.73095703 13.79003906 C29.92063548 15.7544895 27.32154664 17.9741623 24.74609375 20.234375 C23 21 23 21 20.68359375 20.44140625 C17.39311259 18.67402991 14.53066182 16.5121997 11.625 14.1875 C10.47855918 13.28687554 9.33142926 12.38712752 8.18359375 11.48828125 C7.63687012 11.05854004 7.09014648 10.62879883 6.52685547 10.18603516 C3.74993396 8.02897013 0.8831464 6.01149749 -2 4 C-1.34 2.68 -0.68 1.36 0 0 Z " fill="#9DAEF9" transform="translate(26,42)"/>
</svg>
