<?xml version="1.0" encoding="UTF-8"?>
<svg version="1.1" xmlns="http://www.w3.org/2000/svg" width="36" height="39">
<path d="M0 0 C11.88 0 23.76 0 36 0 C36 12.87 36 25.74 36 39 C24.12 39 12.24 39 0 39 C0 26.13 0 13.26 0 0 Z " fill="#E9ECFA" transform="translate(0,0)"/>
<path d="M0 0 C0.33 0 0.66 0 1 0 C1 2.64 1 5.28 1 8 C-10.88 8 -22.76 8 -35 8 C-35 6.02 -35 4.04 -35 2 C-34.46697266 2.32307129 -33.93394531 2.64614258 -33.38476562 2.97900391 C-28.46814324 5.08397061 -22.76880644 4.36950594 -17.5 4.375 C-16.26378906 4.39949219 -15.02757812 4.42398438 -13.75390625 4.44921875 C-12.56667969 4.45308594 -11.37945313 4.45695312 -10.15625 4.4609375 C-9.07150391 4.46915527 -7.98675781 4.47737305 -6.86914062 4.48583984 C-3.36416859 3.89233284 -2.26119762 2.65670978 0 0 Z " fill="#FBFBFC" transform="translate(35,31)"/>
<path d="M0 0 C0.57234375 0.24621094 1.1446875 0.49242187 1.734375 0.74609375 C0.14769922 4.64895142 -2.39912981 7.08130357 -5.390625 9.99609375 C-6.30070312 10.888125 -7.21078125 11.78015625 -8.1484375 12.69921875 C-8.84710938 13.3746875 -9.54578125 14.05015625 -10.265625 14.74609375 C-13.1262141 13.3867229 -15.12490199 12.10088906 -17.265625 9.74609375 C-16.605625 8.42609375 -15.945625 7.10609375 -15.265625 5.74609375 C-12.790625 6.73609375 -12.790625 6.73609375 -10.265625 7.74609375 C-9.46898437 6.86244141 -9.46898437 6.86244141 -8.65625 5.9609375 C-7.59664062 4.83365234 -7.59664062 4.83365234 -6.515625 3.68359375 C-5.81953125 2.92949219 -5.1234375 2.17539063 -4.40625 1.3984375 C-2.265625 -0.25390625 -2.265625 -0.25390625 0 0 Z " fill="#5675F7" transform="translate(25.265625,11.25390625)"/>
</svg>
